# xmcd CD database file
#
# Track frame offsets:
#	150
#	34195
#	56427
#	81915
#	92465
#	119422
#
# Disc length: 1919 seconds
#
# Revision: 0
# Processed by: cddbd v1.5.1PL2 Copyright (c) Steve Scherf et al.
# Submitted via: CDex 1.51
#
DISCID=43077d06
DTITLE=布袋寅泰 - HOTEI 25th Anniversary ALL TIME SUPER BEST TOUR 06.03.09 SEKISHI BUNKA KAIKAN
DYEAR=2006
DGENRE=Rock
TTITLE0=MC-
TTITLE1=バンビーナ (BAMBINA GO！GO！ VERSION)
TTITLE2=POISON
TTITLE3=ENCORE-
TTITLE4=BEAT SWEET (25 YEARS ANNIVERSARY VERSION)
TTITLE5=IDENTITY
EXTD=YEAR: 2006
EXTT0=
EXTT1=
EXTT2=
EXTT3=
EXTT4=
EXTT5=
PLAYORDER=
